<svg role="img" xmlns="http://www.w3.org/2000/svg" width="24" height="20" style=""><rect id="backgroundrect" width="100%" height="100%" x="0" y="0" fill="none" stroke="none"/><title>Twitter</title><g class="currentLayer" style=""><title>Layer 1</title><path d="M23.953000596046447,2.3236705732345584 a10,10 0 0 1 -2.825,0.775 a4.958,4.958 0 0 0 2.1630000000000003,-2.723 c-0.9510000000000003,0.555 -2.005,0.9590000000000003 -3.127,1.184 a4.92,4.92 0 0 0 -8.384,4.482 C7.690000596046448,5.848670573234559 4.067000596046448,3.883670573234558 1.6400005960464479,0.9156705732345582 a4.822,4.822 0 0 0 -0.6660000000000005,2.475 c0,1.71 0.8700000000000003,3.213 2.188,4.096 a4.904,4.904 0 0 1 -2.228,-0.6160000000000003 v0.06000000000000003 a4.923,4.923 0 0 0 3.946,4.827 a4.996,4.996 0 0 1 -2.212,0.08500000000000005 a4.936,4.936 0 0 0 4.604,3.417 a9.867,9.867 0 0 1 -6.102,2.105 c-0.3900000000000002,0 -0.779,-0.02300000000000002 -1.17,-0.06700000000000005 a13.995,13.995 0 0 0 7.557,2.209 c9.053,0 13.998,-7.496 13.998,-13.985 c0,-0.21000000000000008 0,-0.42000000000000015 -0.015000000000000008,-0.6300000000000003 A9.935,9.935 0 0 0 24.000000596046448,2.343670573234558 z" id="svg_1" class="selected" opacity="1" fill="#ffffff" stroke="none" fill-opacity="1"/></g></svg>